<svg width="30" height="30" viewBox="0 0 30 30" fill="none" xmlns="http://www.w3.org/2000/svg">
<circle cx="15.5" cy="11.5" r="11.5" fill="#2E2E48"/>
<g filter="url(#filter0_d_3_5)">
<path d="M8.90998 7.27273L11.16 10.9034H11.2282L13.4782 7.27273H14.7225L11.9782 11.6364L14.7225 16H13.4782L11.2282 12.4375H11.16L8.90998 16H7.66566L10.4782 11.6364L7.66566 7.27273H8.90998ZM16.0978 16V7.27273H19.0467C19.7314 7.27273 20.291 7.39631 20.7257 7.64347C21.1632 7.88778 21.487 8.21875 21.6973 8.63636C21.9075 9.05398 22.0126 9.51989 22.0126 10.0341C22.0126 10.5483 21.9075 11.0156 21.6973 11.4361C21.4899 11.8565 21.1689 12.1918 20.7342 12.4418C20.2995 12.6889 19.7427 12.8125 19.0637 12.8125H16.9501V11.875H19.0297C19.4984 11.875 19.8748 11.794 20.1589 11.6321C20.443 11.4702 20.649 11.2514 20.7768 10.9759C20.9075 10.6974 20.9728 10.3835 20.9728 10.0341C20.9728 9.68466 20.9075 9.37216 20.7768 9.09659C20.649 8.82102 20.4416 8.60511 20.1547 8.44886C19.8677 8.28977 19.487 8.21023 19.0126 8.21023H17.1547V16H16.0978Z" fill="#A478E8"/>
</g>
<defs>
<filter id="filter0_d_3_5" x="0.665657" y="0.27272" width="28.347" height="22.7273" filterUnits="userSpaceOnUse" color-interpolation-filters="sRGB">
<feFlood flood-opacity="0" result="BackgroundImageFix"/>
<feColorMatrix in="SourceAlpha" type="matrix" values="0 0 0 0 0 0 0 0 0 0 0 0 0 0 0 0 0 0 127 0" result="hardAlpha"/>
<feOffset/>
<feGaussianBlur stdDeviation="3.5"/>
<feComposite in2="hardAlpha" operator="out"/>
<feColorMatrix type="matrix" values="0 0 0 0 0.643137 0 0 0 0 0.470588 0 0 0 0 0.909804 0 0 0 0.2 0"/>
<feBlend mode="lighten" in2="BackgroundImageFix" result="effect1_dropShadow_3_5"/>
<feBlend mode="normal" in="SourceGraphic" in2="effect1_dropShadow_3_5" result="shape"/>
</filter>
</defs>
</svg>
