<svg width="6" height="7" viewBox="0 0 6 7" fill="none" xmlns="http://www.w3.org/2000/svg">
<path d="M2.99996 6.99999C2.57894 6.64086 2.18869 6.24716 1.83329 5.82299C1.29996 5.18599 0.666626 4.23732 0.666626 3.33332C0.666154 2.38917 1.23471 1.53778 2.10698 1.17645C2.97926 0.815121 3.98332 1.01507 4.65063 1.68299C5.08945 2.11986 5.33526 2.71412 5.33331 3.33332C5.33331 4.23732 4.69996 5.18599 4.16663 5.82299C3.81123 6.24716 3.42098 6.64086 2.99996 6.99999ZM2.99996 2.33332C2.64269 2.33332 2.31257 2.52392 2.13393 2.83332C1.9553 3.14272 1.9553 3.52392 2.13393 3.83332C2.31257 4.14272 2.64269 4.33332 2.99996 4.33332C3.55225 4.33332 3.99996 3.8856 3.99996 3.33332C3.99996 2.78103 3.55225 2.33332 2.99996 2.33332Z" fill="#79819A"/>
</svg>
