<svg width="16" height="16" viewBox="0 0 16 16" fill="none" xmlns="http://www.w3.org/2000/svg">
<rect width="16" height="16" rx="8" fill="#E2E6EE"/>
<path d="M10.9156 11.3333C7.36078 11.3384 4.66287 8.60812 4.66668 5.08438C4.66668 4.85426 4.85322 4.66666 5.08334 4.66666H6.18307C6.38956 4.66666 6.56498 4.81838 6.5953 5.02263C6.66797 5.51216 6.81049 5.98873 7.01854 6.43779L7.06136 6.53021C7.12089 6.65871 7.08054 6.81139 6.96529 6.89369C6.62471 7.13691 6.49456 7.62648 6.75988 8.00848C7.09283 8.48785 7.51253 8.90746 7.99178 9.24025C8.37376 9.5055 8.86325 9.37536 9.10647 9.03485C9.18883 8.91954 9.34159 8.87916 9.47017 8.93872L9.56216 8.98134C10.0112 9.18937 10.4879 9.3319 10.9774 9.40456C11.1817 9.43487 11.3333 9.61028 11.3333 9.81677V10.9167C11.3333 11.1468 11.1463 11.3333 10.9162 11.3333L10.9156 11.3333Z" fill="#79819A"/>
</svg>
